<?xml version="1.0" encoding="utf-8"?>
<!-- Generator: Adobe Illustrator 25.2.3, SVG Export Plug-In . SVG Version: 6.00 Build 0)  -->
<svg version="1.1" id="Layer_1" xmlns="http://www.w3.org/2000/svg" xmlns:xlink="http://www.w3.org/1999/xlink" x="0px" y="0px"
	 viewBox="0 0 324.3 355.3" style="enable-background:new 0 0 324.3 355.3;" xml:space="preserve">
<style type="text/css">
	.st0{fill:#84D9BC;}
</style>
<path class="st0" d="M162.3,14.7c-25.5,0-39.3,82.2-39.3,159.6c0,39.9,3.7,81.1,10.7,111.7c0.6,2.6,1.2,5.1,1.9,7.5
	c1.7,6.6,3.9,13,6.5,19.3c1.3,3.2,2.9,6.3,4.7,9.3c4.6,7.4,9.7,11.7,15.5,11.7s11.1-4.3,15.6-11.9c2.1-3.4,3.9-7.1,5.3-10.8
	c2.3-5.9,4.3-11.9,5.8-18c0.7-2.4,1.3-5,1.9-7.6c7-30.5,10.6-71.6,10.6-111.3C201.5,97,187.8,14.7,162.3,14.7z M184.3,281.7
	c-2,9.9-4.9,19.5-8.6,28.9c-4.3,10.2-9,15.8-13.5,15.8c-4.3,0-8.6-5-12.8-14.2c-3.3-7.4-6.5-17.6-9.2-30.1
	c-5.8-26.7-9.8-64-9.8-107.8c0-89.7,16.8-152.1,31.8-152.1S194,84.7,194,174.3C194.1,217.9,190.1,255.2,184.3,281.7L184.3,281.7z"/>
<path class="st0" d="M16.1,240.6V191l104.8-61.8l10-3.8v78.9L16.1,240.6z M23.6,195.2v35.1l99.9-31.7v-62.4L23.6,195.2z"/>
<path class="st0" d="M308.2,240.6l-114.8-36.4v-78.8l10.6,4.1l104.2,61.4V240.6z M200.8,198.7l99.9,31.7v-35.1l-99.9-59V198.7z"/>
<path class="st0" d="M140.3,282.2l-6.6,3.9L89,312.4v28.2l57.8-18.3l2.8-0.9v-9.1C146.2,304.8,143,294.7,140.3,282.2z M142,315.9
	l-45.6,14.4v-13.7l39.1-23l6.5-3.8V315.9z"/>
<path class="st0" d="M190.9,285.6l-6.6-3.9c-2,9.9-4.9,19.5-8.6,28.9v10.7l2.2,0.7l58.3,18.6v-28.2L190.9,285.6z M228.7,330.4
	l-45.5-14.5v-26.1l5.8,3.4l39.7,23.4V330.4z"/>
<path class="st0" d="M162.2,91.8c-8.2,0-14.9-6.7-14.9-14.9S154,62,162.2,62s14.9,6.7,14.9,14.9l0,0
	C177.1,85.1,170.5,91.8,162.2,91.8z M162.2,65.7c-6.2,0-11.2,5-11.2,11.2S156.1,88,162.2,88s11.2-5,11.2-11.2l0,0
	C173.4,70.7,168.4,65.7,162.2,65.7z"/>
<path class="st0" d="M162.2,133.6c-7.1,0-12.9-5.8-12.9-12.9s5.8-12.9,12.9-12.9c7.1,0,12.9,5.8,12.9,12.9l0,0
	C175.1,127.8,169.4,133.6,162.2,133.6z M162.2,111.6c-5.1,0-9.2,4.1-9.2,9.2s4.1,9.2,9.2,9.2c5.1,0,9.2-4.1,9.2-9.2l0,0
	C171.4,115.7,167.3,111.6,162.2,111.6C162.3,111.5,162.3,111.5,162.2,111.6L162.2,111.6z"/>
<path class="st0" d="M162.2,173.3c-7.1,0-12.9-5.8-12.9-12.9c0-7.1,5.8-12.9,12.9-12.9c7.1,0,12.9,5.8,12.9,12.9l0,0
	C175.1,167.5,169.4,173.3,162.2,173.3z M162.2,151.3c-5.1,0-9.2,4.1-9.2,9.2c0,5.1,4.1,9.2,9.2,9.2c5.1,0,9.2-4.1,9.2-9.2
	C171.4,155.4,167.4,151.2,162.2,151.3C162.3,151.2,162.3,151.2,162.2,151.3L162.2,151.3z"/>
<path class="st0" d="M162.2,209.3c-7.1,0-12.9-5.8-12.9-12.9c0-7.1,5.8-12.9,12.9-12.9c7.1,0,12.9,5.8,12.9,12.9l0,0
	C175.1,203.6,169.4,209.3,162.2,209.3z M162.2,187.3c-5.1,0-9.2,4.1-9.2,9.2c0,5.1,4.1,9.2,9.2,9.2c5.1,0,9.2-4.1,9.2-9.2
	S167.3,187.3,162.2,187.3L162.2,187.3z"/>
</svg>
